<svg width="21" height="22" viewBox="0 0 21 22" fill="none" xmlns="http://www.w3.org/2000/svg">
<path d="M19.8737 6.8869L19.3548 7.43045L19.351 7.42641L7.25311 20.1004L0 22L1.8133 14.4015L14.4261 1.17998C15.9279 -0.393328 18.3718 -0.393328 19.8736 1.17998C21.3755 2.75349 21.3755 5.3135 19.8737 6.8869ZM6.87806 18.3193L16.8472 7.87545L13.4902 4.34253L3.51344 14.7944L6.87806 18.3193ZM2.01679 19.8872L5.44285 18.9899L2.87328 16.298L2.01679 19.8872ZM18.836 2.26699C17.9448 1.3333 16.5177 1.29464 15.5821 2.15111L14.5278 3.25551L17.8848 6.78845L18.9467 5.67595C19.7641 4.69583 19.7272 3.20076 18.836 2.26699Z" fill="#7D8389"/>
</svg>
