<svg width="21" height="22" viewBox="0 0 21 22" fill="none" xmlns="http://www.w3.org/2000/svg">
<path d="M19.6874 5.49996H19.0312H1.96876H1.31236V3.30001H5.24989H15.7499H19.6874V5.49996ZM17.7187 19.7999C17.7187 20.4065 17.1299 20.8999 16.4063 20.8999H4.59371C3.86992 20.8999 3.28113 20.4065 3.28113 19.7999V6.60002H5.90629V14.2999H7.21866V6.60002H9.84382V14.2999H11.1562V6.60002H13.7811V14.2999H15.0937V6.60002H17.7187L17.7187 19.7999ZM7.87505 1.09988H13.1249C13.8487 1.09988 14.4375 1.59334 14.4375 2.19995H6.56247C6.56247 1.59334 7.15126 1.09988 7.87505 1.09988ZM21 2.19995H15.7499C15.7499 0.986916 14.5723 0 13.1249 0H7.87505C6.42746 0 5.24989 0.986916 5.24989 2.19995H0V6.60002H1.96876V19.7999C1.96876 21.0129 3.14634 22 4.59371 22H16.4063C17.8537 22 19.0312 21.0129 19.0312 19.7999V6.60002H21L21 2.19995Z" fill="#7D8389"/>
</svg>
